# xmcd CD database file
#
# Track frame offsets:
#	150
#	9190
#	24116
#	38832
#	57733
#	70830
#	85284
#	104177
#	120143
#	133179
#	154704
#	169097
#
# Disc length: 2492 seconds
#
# Revision: 0
# Processed by: cddbd v1.5.1PL2 Copyright (c) Steve Scherf et al.
# Submitted via: CDex 1.51
#
DISCID=9509ba0c
DTITLE=Pete Fountain - Farewell Blues
DYEAR=2005
DGENRE=Jazz
TTITLE0=Bugle Call Rag
TTITLE1=Farewell Blues
TTITLE2=High Society
TTITLE3=In the Shades of the Old Apple Tree
TTITLE4=Margie
TTITLE5=St. James Infirmary
TTITLE6=Sensational Rag
TTITLE7=Sunset in Paradise
TTITLE8=That's a Plenty
TTITLE9=The World Is Waiting for a Sunrise
TTITLE10=Up a Lazy River
TTITLE11=When the Saints Go Marching In
EXTD=YEAR: 2005
EXTT0=
EXTT1=
EXTT2=
EXTT3=
EXTT4=
EXTT5=
EXTT6=
EXTT7=
EXTT8=
EXTT9=
EXTT10=
EXTT11=
PLAYORDER=
